<?xml version="1.0" standalone="no"?><!DOCTYPE svg PUBLIC "-//W3C//DTD SVG 1.1//EN" "http://www.w3.org/Graphics/SVG/1.1/DTD/svg11.dtd"><svg t="1543510432878" class="icon" style="" viewBox="0 0 1024 1024" version="1.1" xmlns="http://www.w3.org/2000/svg" p-id="10663" xmlns:xlink="http://www.w3.org/1999/xlink" width="200" height="200"><defs><style type="text/css"></style></defs><path d="M972.8 373.76c0-156.0576-120.832-282.8288-269.312-282.8288-73.3184 0-142.5408 31.9488-192.7168 86.6304C460.5952 122.88 391.168 90.7264 318.0544 90.7264c-148.48 0-269.312 126.7712-269.312 282.8288 0 5.3248 0.4096 10.0352 1.024 13.7216 0 1.2288-0.2048 2.4576-0.2048 3.8912 0 27.648 6.5536 57.9584 19.6608 90.3168 0.4096 1.2288 0.8192 2.2528 1.2288 3.2768 81.92 199.2704 397.9264 428.4416 411.2384 439.0912 8.3968 6.5536 18.2272 9.6256 28.2624 9.6256s20.0704-3.2768 28.4672-10.0352c11.4688-9.216 280.7808-205.4144 387.8912-391.168 4.096-6.3488 7.168-12.288 9.8304-17.6128l2.4576-4.9152 0.4096-0.8192 1.2288-1.8432c6.3488-12.6976 11.4688-24.3712 15.5648-35.84 11.0592-29.4912 16.5888-55.7056 16.5888-80.0768 0-1.8432 0-3.6864-0.2048-4.9152 0.2048-3.072 0.6144-7.3728 0.6144-12.4928z m0 0" fill="#E31A17" p-id="10664"></path><path d="M509.952 974.4384c-19.6608 0-38.0928-6.3488-53.4528-18.2272l-0.2048-0.2048c-0.6144-0.6144-2.2528-1.6384-4.3008-3.2768C350.6176 876.544 106.7008 679.936 32.768 500.9408c-0.8192-1.6384-1.2288-3.2768-1.6384-4.3008l-0.2048-0.4096C15.9744 459.1616 8.6016 423.936 8.6016 391.168v-2.6624c-0.4096-4.096-0.8192-9.0112-0.8192-14.7456 0-178.5856 139.0592-323.7888 310.272-323.7888 69.8368 0 138.0352 25.6 192.7168 71.0656 54.6816-45.6704 122.88-71.0656 192.7168-71.0656C874.496 49.7664 1013.76 195.1744 1013.76 373.76c0 5.3248-0.2048 9.6256-0.4096 12.9024 0 1.4336 0.2048 3.072 0.2048 4.9152 0 29.0816-6.144 59.8016-19.0464 94.208-4.7104 13.5168-10.4448 26.624-17.6128 40.3456l-2.048 4.096-0.6144 0.8192v0.2048l-1.2288 2.4576-1.4336 2.8672c-2.6624 4.9152-5.7344 11.0592-10.0352 17.6128-94.8224 163.84-306.5856 333.4144-393.4208 398.9504-2.048 1.6384-3.4816 2.6624-4.096 3.072-15.7696 11.8784-34.4064 18.2272-54.0672 18.2272z m-3.072-82.944c0.6144 0.4096 1.4336 1.024 3.072 1.024 1.2288 0 2.2528-0.4096 3.2768-1.2288 0.8192-0.6144 2.6624-2.048 5.5296-4.096C601.7024 824.7296 803.84 662.9376 890.88 512l1.024-1.8432c2.4576-3.6864 4.5056-7.7824 6.7584-12.0832l1.024-1.8432c0.2048-0.2048 0.2048-0.6144 0.4096-0.8192 0.6144-1.2288 1.2288-2.6624 2.2528-4.5056l1.024-2.048c0.2048-0.6144 0.8192-1.4336 1.4336-2.4576 4.9152-9.8304 9.0112-19.2512 12.288-28.672l0.2048-0.6144c9.4208-24.9856 13.9264-46.4896 13.9264-65.7408V389.12l-0.2048-2.4576 0.2048-4.9152c0.2048-2.4576 0.4096-5.12 0.4096-7.7824 0-133.3248-102.4-241.8688-228.352-241.8688-60.416 0-119.808 26.8288-162.6112 73.3184l-30.1056 32.768-30.1056-32.768c-43.008-46.6944-102.1952-73.5232-162.6112-73.5232-125.952 0-228.352 108.544-228.352 241.8688 0 3.2768 0.4096 6.3488 0.6144 8.8064l0.4096 3.8912-0.2048 3.8912v1.024c0 22.1184 5.7344 47.3088 16.5888 74.752l0.2048 0.6144c0.2048 0.6144 0.4096 1.024 0.6144 1.6384l0.4096 0.8192c67.9936 164.864 318.0544 361.6768 393.216 418.2016 2.6624 2.048 4.7104 3.4816 5.5296 4.096z" fill="#E31A17" p-id="10665"></path></svg>